<svg width="17" height="16" viewBox="0 0 17 16" fill="none" xmlns="http://www.w3.org/2000/svg">
<path id="Icon" d="M3.65431 13.3928C4.09535 12.3538 5.12507 11.625 6.325 11.625H10.675C11.8749 11.625 12.9046 12.3538 13.3457 13.3928M11.4 6.1875C11.4 7.78913 10.1016 9.0875 8.5 9.0875C6.89837 9.0875 5.6 7.78913 5.6 6.1875C5.6 4.58587 6.89837 3.2875 8.5 3.2875C10.1016 3.2875 11.4 4.58587 11.4 6.1875ZM15.75 8C15.75 12.0041 12.5041 15.25 8.5 15.25C4.49594 15.25 1.25 12.0041 1.25 8C1.25 3.99594 4.49594 0.75 8.5 0.75C12.5041 0.75 15.75 3.99594 15.75 8Z" stroke="black" stroke-opacity="0.8" stroke-linecap="round" stroke-linejoin="round"/>
</svg>
