<svg width="233" height="50" viewBox="0 0 233 50" fill="none" xmlns="http://www.w3.org/2000/svg">
<path d="M31.0127 29.3513L30.9335 29.1931C30.8544 29.114 30.8544 28.9557 30.7753 28.8766C30.6962 28.7975 30.6962 28.7184 30.6171 28.6393C30.538 28.5602 30.538 28.4811 30.4589 28.3228C30.3797 28.2437 30.3797 28.1646 30.3006 28.0855C30.3006 28.0855 30.3006 28.0855 30.3006 28.0064C30.2215 27.9273 30.2215 27.8481 30.1424 27.769C30.1424 27.769 30.1424 27.6899 30.0633 27.6899C29.9842 27.6108 29.9842 27.5317 29.9051 27.4526C29.826 27.3735 29.826 27.2943 29.7468 27.2152C29.6677 27.1361 29.5886 26.9779 29.5095 26.8988C29.4304 26.8197 29.3513 26.6614 29.2722 26.5823C29.1139 26.345 28.9557 26.1867 28.7975 25.9494C28.7184 25.8703 28.6392 25.7912 28.5601 25.7121C28.5601 25.633 28.481 25.6329 28.481 25.5538C28.4019 25.4747 28.4019 25.4747 28.3228 25.3956C28.1646 25.2374 28.0063 25.0792 27.8481 24.9209C27.769 24.8418 27.6899 24.7627 27.5316 24.6045C27.2943 24.3671 26.9778 24.1298 26.7405 23.9716C26.1076 23.4178 25.3165 22.9431 24.5253 22.4684L23.0222 21.5981L14.1614 16.3766C12.8165 15.5855 11.788 14.8735 11.1551 14.2405C10.5222 13.6076 10.2057 12.8165 10.2057 11.8671C10.2057 10.9178 10.5222 10.0475 11.1551 9.25637C12.4209 7.67409 14.557 6.88295 17.4842 6.88295C19.462 6.88295 21.1234 7.27852 22.4684 7.99055V5.61713C22.4684 5.4589 22.4684 5.30067 22.3892 5.22156C19.6994 4.98422 17.4051 4.82599 15.5063 4.82599C12.0253 4.82599 9.25633 5.61713 7.19937 7.27852C5.14241 8.8608 3.9557 10.9969 3.79747 13.5285C3.79747 13.845 3.71836 14.1614 3.71836 14.557C3.71836 17.8007 5.53798 20.4905 9.25633 22.5475L18.75 28.2437C20.4905 29.2722 21.8354 30.4589 22.7057 31.7247C23.576 32.9905 24.0506 34.2564 24.0506 35.4431C24.0506 38.5285 22.4684 40.7437 19.3829 42.1678C17.8006 42.8007 16.0601 43.1962 14.0823 43.1962C12.1044 43.1962 10.2848 42.8798 8.62342 42.2469C6.96203 41.614 5.61709 40.7437 4.5095 39.6361C2.53165 37.6583 1.58228 35.4431 1.58228 32.9905C1.58228 30.7754 2.29431 28.5602 3.79747 26.4241L3.32279 26.1076C1.1076 28.6393 0 31.25 0 34.0981C0 34.9684 0.0791151 35.7595 0.316457 36.6298C1.42405 40.3481 3.9557 42.9589 7.91139 44.4621C10.0475 45.3323 12.5 45.7279 15.1108 45.7279C17.8006 45.7279 20.1741 45.3323 22.3892 44.5412C24.6044 43.75 26.3449 42.7216 27.769 41.4557C29.193 40.1899 30.1424 38.845 30.7753 37.3418C31.4082 35.8386 31.7247 34.4146 31.7247 33.1488C31.7247 31.7247 31.4873 30.538 31.0127 29.3513Z" fill="#013D6F"/>
<path d="M51.0285 16.2975C50.3165 17.7216 49.3671 18.8292 48.1013 19.7785C46.8355 20.7279 45.4905 21.3608 43.9082 21.8355C42.326 22.2311 40.6646 22.3893 39.0032 22.1519C37.3418 21.9146 35.6804 21.3608 34.0981 20.4114V19.9368C35.0475 19.9368 35.8386 19.8576 36.5506 19.6994C37.2627 19.5412 38.0538 19.3038 38.8449 18.9874C39.6361 18.5918 40.4272 18.038 41.1392 17.326C41.8513 16.5349 42.4051 15.5064 42.7215 14.2406C42.8798 13.845 42.9589 13.2912 43.038 12.7374C43.1171 12.1836 43.1171 11.7089 43.038 11.2342C43.038 9.09815 42.326 7.35764 41.1392 6.09182C39.8734 4.82599 38.1329 4.19308 35.8386 4.19308H32.1203V28.7975C31.7247 27.9273 31.25 27.057 30.6171 26.1868C29.3513 24.3671 27.5317 22.7849 25.2373 21.4399L23.7342 20.5697V5.69625C23.7342 4.82599 23.4177 4.11397 22.7057 3.48105C21.9937 2.84814 21.2025 2.53169 20.1741 2.53169H19.5411L19.462 2.05701H38.212C41.3766 2.05701 43.9874 2.45258 45.9652 3.32283C47.943 4.19308 49.4462 5.30068 50.3956 6.72473C51.3449 8.14878 51.8987 9.81017 51.9779 11.6298C52.057 13.2912 51.7405 14.8735 51.0285 16.2975Z" fill="#013D6F"/>
<path fill-rule="evenodd" clip-rule="evenodd" d="M73.8133 11.867L57.1994 45.5695L52.2943 35.5221L63.9241 11.867H58.6234L73.9715 1.50308L78.9557 11.867H73.8133Z" fill="#C31C26"/>
<path fill-rule="evenodd" clip-rule="evenodd" d="M34.8893 24.0506L45.4114 45.4904H55.3798L44.7785 24.0506H34.8893Z" fill="#013D6F"/>
<path d="M106.646 4.35126C110.364 4.35126 112.263 6.56644 112.263 10.443V11.2342H108.623V10.2057C108.623 8.46518 107.911 7.83227 106.725 7.83227C105.538 7.83227 104.826 8.46518 104.826 10.2057C104.826 15.1899 112.342 16.1392 112.342 23.1013C112.342 26.9778 110.364 29.193 106.646 29.193C102.848 29.193 100.949 26.9778 100.949 23.1013V21.5981H104.589V23.3386C104.589 25.0791 105.38 25.712 106.566 25.712C107.753 25.712 108.544 25.0791 108.544 23.3386C108.544 18.3544 101.028 17.4051 101.028 10.443C101.028 6.56644 102.927 4.35126 106.646 4.35126Z" fill="#013D6F"/>
<path d="M125.87 10.6013V13.7658C125.87 17.6424 123.972 19.7785 120.174 19.7785H118.354V28.9557H114.557V4.58859H120.174C123.972 4.58859 125.87 6.72467 125.87 10.6013ZM118.354 8.06961V16.2975H120.174C121.361 16.2975 122.073 15.7437 122.073 14.0032V10.3639C122.073 8.62341 121.44 8.06961 120.174 8.06961H118.354Z" fill="#013D6F"/>
<path d="M133.465 24.4462L136.392 4.58859H139.873L136.076 28.9557H130.38L126.582 4.58859H130.459L133.465 24.4462Z" fill="#013D6F"/>
<path d="M150.87 15.4272H155.775V18.9082H150.87V28.9557H147.073V4.58859H157.199V8.06961H150.87V15.4272Z" fill="#013D6F"/>
<path d="M159.019 4.58859H162.816V28.9557H159.019V4.58859Z" fill="#013D6F"/>
<path d="M169.066 11.3133V28.9557H165.585V4.58859H170.411L174.367 19.1456V4.58859H177.769V28.9557H173.813L169.066 11.3133Z" fill="#013D6F"/>
<path d="M185.601 4.3512C189.32 4.3512 191.218 6.56638 191.218 10.443V11.2341H187.579V10.2056C187.579 8.46512 186.867 7.8322 185.68 7.8322C184.494 7.8322 183.782 8.46512 183.782 10.2056C183.782 15.1898 191.297 16.1392 191.297 23.1012C191.297 26.9778 189.32 29.193 185.601 29.193C181.804 29.193 179.905 26.9778 179.905 23.1012V21.598H183.544V23.3385C183.544 25.079 184.335 25.712 185.522 25.712C186.709 25.712 187.5 25.079 187.5 23.3385C187.5 18.3544 179.984 17.405 179.984 10.443C179.984 6.56638 181.883 4.3512 185.601 4.3512Z" fill="#013D6F"/>
<path d="M197.31 14.8734H202.532V18.3544H197.31V25.4747H203.956V28.9557H193.513V4.58859H203.956V8.06961H197.31V14.8734Z" fill="#013D6F"/>
<path d="M214.32 28.9557C214.082 28.3228 214.003 27.9272 214.003 25.9494V22.1519C214.003 19.8576 213.212 19.0664 211.472 19.0664H210.127V28.9557H206.329V4.58859H212.104C216.06 4.58859 217.801 6.40821 217.801 10.2057V12.1044C217.801 14.6361 217.009 16.2183 215.269 17.0095C217.168 17.8006 217.801 19.6202 217.801 22.231V26.0285C217.801 27.2152 217.801 28.0854 218.196 28.9557H214.32ZM210.127 8.06961V15.5854H211.63C213.054 15.5854 213.924 14.9525 213.924 12.9747V10.6013C213.924 8.86074 213.37 8.06961 211.946 8.06961H210.127Z" fill="#013D6F"/>
<path d="M226.028 24.4462L228.956 4.58859H232.437L228.639 28.9557H222.943L219.146 4.58859H223.022L226.028 24.4462Z" fill="#013D6F"/>
<path d="M105.934 37.2626V37.6581C105.934 38.6866 105.617 39.3987 104.905 39.7151C105.775 40.0316 106.092 40.8227 106.092 41.8512V42.6423C106.092 44.2246 105.301 45.0157 103.639 45.0157H101.108V34.8892H103.481C105.221 34.8892 105.934 35.6803 105.934 37.2626ZM102.69 36.3923V39.0822H103.323C103.956 39.0822 104.272 38.8449 104.272 37.9746V37.4208C104.272 36.7088 104.035 36.3923 103.481 36.3923H102.69ZM102.69 40.5063V43.5917H103.639C104.193 43.5917 104.43 43.3544 104.43 42.5632V41.693C104.43 40.7436 104.114 40.4271 103.402 40.4271H102.69V40.5063Z" fill="#C31C26"/>
<path d="M108.544 41.693L106.566 34.8892H108.228L109.415 39.4778L110.601 34.8892H112.104L110.206 41.693V45.0949H108.623V41.693H108.544Z" fill="#C31C26"/>
<path d="M118.038 39.3987H120.253V42.6423C120.253 44.3037 119.462 45.174 117.88 45.174C116.297 45.174 115.506 44.2246 115.506 42.6423V37.3417C115.506 35.6803 116.297 34.8101 117.88 34.8101C119.462 34.8101 120.253 35.7594 120.253 37.3417V38.2911H118.75V37.1835C118.75 36.4715 118.434 36.155 117.959 36.155C117.484 36.155 117.168 36.3923 117.168 37.1835V42.6423C117.168 43.3544 117.484 43.5917 117.959 43.5917C118.434 43.5917 118.75 43.3544 118.75 42.6423V40.9018H118.038V39.3987Z" fill="#C31C26"/>
<path d="M123.18 45.0948H121.598V34.9683H123.18V39.3195H125V34.9683H126.661V45.0948H125V40.7436H123.18V45.0948Z" fill="#C31C26"/>
<path d="M133.228 45.0948H131.646L131.408 43.2752H129.43L129.193 45.0948H127.69L129.351 34.9683H131.725L133.228 45.0948ZM129.589 41.8512H131.092L130.301 36.7088L129.589 41.8512Z" fill="#C31C26"/>
<path d="M135.68 37.7372V45.0948H134.256V34.9683H136.234L137.896 41.06V34.9683H139.32V45.0948H137.658L135.68 37.7372Z" fill="#C31C26"/>
<path d="M142.88 34.8101C144.462 34.8101 145.253 35.7594 145.253 37.3417V37.6582H143.75V37.2626C143.75 36.5506 143.434 36.2341 142.959 36.2341C142.484 36.2341 142.168 36.4714 142.168 37.2626C142.168 39.3195 145.253 39.7151 145.253 42.6423C145.253 44.3037 144.462 45.174 142.88 45.174C141.297 45.174 140.506 44.2246 140.506 42.6423V42.0094H142.009V42.7215C142.009 43.4335 142.326 43.6708 142.801 43.6708C143.275 43.6708 143.592 43.4335 143.592 42.7215C143.592 40.6645 140.506 40.2689 140.506 37.3417C140.585 35.7594 141.377 34.8101 142.88 34.8101Z" fill="#C31C26"/>
<path d="M148.101 45.0948H146.519V34.9683H148.101V39.3195H149.921V34.9683H151.582V45.0948H149.921V40.7436H148.101V45.0948Z" fill="#C31C26"/>
<path d="M154.43 41.693L152.453 34.8892H154.114L155.301 39.4778L156.487 34.8892H157.99L156.013 41.693V45.0949H154.43V41.693Z" fill="#C31C26"/>
<path d="M163.449 45.0948H161.867L161.63 43.2752H159.652L159.415 45.0948H157.911L159.573 34.9683H161.946L163.449 45.0948ZM159.81 41.8512H161.313L160.522 36.7088L159.81 41.8512Z" fill="#C31C26"/>
<path d="M167.88 42.1676L168.987 34.9683H171.203V45.0948H169.699V37.8164L168.592 45.0948H167.089L165.902 37.8955V45.0948H164.478V34.9683H166.693L167.88 42.1676Z" fill="#C31C26"/>
<path d="M175.158 34.8892H176.741V45.0157H175.158V34.8892Z" fill="#C31C26"/>
<path d="M179.589 37.7372V45.0948H178.165V34.9683H180.142L181.804 41.06V34.9683H183.228V45.0948H181.566L179.589 37.7372Z" fill="#C31C26"/>
<path d="M187.104 43.1961L188.291 34.8892H189.794L188.212 45.0157H185.839L184.256 34.8892H185.839L187.104 43.1961Z" fill="#C31C26"/>
<path d="M192.405 39.2404H194.62V40.6645H192.405V43.6708H195.174V45.0948H190.823V34.9683H195.174V36.3923H192.405V39.2404Z" fill="#C31C26"/>
<path d="M198.576 34.8101C200.158 34.8101 200.949 35.7594 200.949 37.3417V37.6582H199.446V37.2626C199.446 36.5506 199.13 36.2341 198.655 36.2341C198.18 36.2341 197.864 36.4714 197.864 37.2626C197.864 39.3195 200.949 39.7151 200.949 42.6423C200.949 44.3037 200.158 45.174 198.576 45.174C196.994 45.174 196.203 44.2246 196.203 42.6423V42.0094H197.706V42.7215C197.706 43.4335 198.022 43.6708 198.497 43.6708C198.972 43.6708 199.288 43.4335 199.288 42.7215C199.288 40.6645 196.203 40.2689 196.203 37.3417C196.203 35.7594 196.994 34.8101 198.576 34.8101Z" fill="#C31C26"/>
<path d="M201.661 34.8892H206.566V36.3132H204.905V45.0157H203.323V36.3132H201.661V34.8892Z" fill="#C31C26"/>
<path d="M210.997 42.1676L212.104 34.9683H214.32V45.0948H212.816V37.8164L211.709 45.0948H210.206L209.019 37.8955V45.0948H207.595V34.9683H209.81L210.997 42.1676Z" fill="#C31C26"/>
<path d="M217.326 39.2404H219.541V40.6645H217.326V43.6708H220.095V45.0948H215.744V34.9683H220.095V36.3923H217.326V39.2404Z" fill="#C31C26"/>
<path d="M222.785 37.7372V45.0948H221.361V34.9683H223.339L225 41.06V34.9683H226.424V45.0948H224.763L222.785 37.7372Z" fill="#C31C26"/>
<path d="M227.373 34.8892H232.278V36.3132H230.617V45.0157H229.035V36.3132H227.373V34.8892Z" fill="#C31C26"/>
<path d="M89.3988 0H88.3703V50H89.3988V0Z" fill="#013D6F"/>
</svg>
