<svg width="16" height="16" viewBox="0 0 16 16" fill="none" xmlns="http://www.w3.org/2000/svg">
<g clip-path="url(#clip0_130_126)">
<path d="M15.0312 2.86719H8.63281V1.95038C8.6324 1.59687 8.49176 1.25797 8.24177 1.00803C7.99178 0.758093 7.65285 0.617531 7.29935 0.617188H1.95038C1.5969 0.617541 1.25801 0.758115 1.00806 1.00806C0.758115 1.25801 0.617541 1.5969 0.617188 1.95038V14.0493C0.617531 14.4029 0.758093 14.7418 1.00803 14.9918C1.25797 15.2418 1.59687 15.3824 1.95038 15.3828H7.29935C7.65288 15.3824 7.99182 15.2418 8.2418 14.9918C8.49179 14.7418 8.63241 14.4029 8.63281 14.0493V9.19531H15.0312C15.0774 9.19532 15.1231 9.18623 15.1658 9.16856C15.2084 9.15089 15.2472 9.125 15.2799 9.09235C15.3125 9.0597 15.3384 9.02095 15.3561 8.97829C15.3737 8.93564 15.3828 8.88992 15.3828 8.84375V3.21875C15.3828 3.17258 15.3737 3.12686 15.3561 3.08421C15.3384 3.04155 15.3125 3.0028 15.2799 2.97015C15.2472 2.9375 15.2084 2.91161 15.1658 2.89394C15.1231 2.87627 15.0774 2.86718 15.0312 2.86719ZM7.29935 14.6797H1.95038C1.7833 14.6794 1.62314 14.6129 1.50503 14.4948C1.38691 14.3766 1.32048 14.2164 1.32031 14.0493V13.1328H7.92969V14.0493C7.92946 14.2165 7.86297 14.3766 7.74481 14.4948C7.62665 14.613 7.46645 14.6795 7.29935 14.6797ZM7.92969 12.4297H1.32031V1.95038C1.32049 1.78333 1.38693 1.62317 1.50505 1.50505C1.62317 1.38693 1.78333 1.32049 1.95038 1.32031H7.29935C7.46642 1.32048 7.62661 1.38691 7.74478 1.50503C7.86295 1.62314 7.92944 1.7833 7.92969 1.95038V2.86719H3.21875C3.17258 2.86718 3.12686 2.87627 3.08421 2.89394C3.04155 2.91161 3.0028 2.9375 2.97015 2.97015C2.9375 3.0028 2.91161 3.04155 2.89394 3.08421C2.87627 3.12686 2.86718 3.17258 2.86719 3.21875V8.84375C2.86718 8.88992 2.87627 8.93564 2.89394 8.97829C2.91161 9.02095 2.9375 9.0597 2.97015 9.09235C3.0028 9.125 3.04155 9.15089 3.08421 9.16856C3.12686 9.18623 3.17258 9.19532 3.21875 9.19531H4.83594V10.8125C4.83593 10.882 4.85654 10.95 4.89517 11.0078C4.9338 11.0656 4.98871 11.1107 5.05295 11.1373C5.11719 11.1639 5.18788 11.1709 5.25607 11.1573C5.32427 11.1437 5.38691 11.1102 5.43607 11.0611L7.30182 9.19531H7.92969V12.4297ZM14.6797 8.49219H7.15625C7.06302 8.49223 6.97362 8.52927 6.90768 8.59518L5.53906 9.96381V8.84375C5.53907 8.79758 5.52998 8.75186 5.51231 8.70921C5.49464 8.66655 5.46875 8.6278 5.4361 8.59515C5.40345 8.5625 5.3647 8.53661 5.32204 8.51894C5.27939 8.50127 5.23367 8.49218 5.1875 8.49219H3.57031V3.57031H14.6797V8.49219Z" fill="black" fill-opacity="0.8"/>
<path d="M11.2214 6.76953C11.2445 6.80953 11.2752 6.84459 11.3118 6.8727C11.3484 6.90081 11.3902 6.92143 11.4348 6.93337C11.4794 6.94531 11.5259 6.94833 11.5717 6.94228C11.6175 6.93622 11.6616 6.9212 11.7015 6.89807L12.1484 6.64003V7.15625C12.1484 7.24949 12.1855 7.33891 12.2514 7.40484C12.3173 7.47077 12.4067 7.50781 12.5 7.50781C12.5932 7.50781 12.6826 7.47077 12.7486 7.40484C12.8145 7.33891 12.8515 7.24949 12.8515 7.15625V6.64003L13.2984 6.89807C13.3791 6.94469 13.4751 6.95734 13.5651 6.93323C13.6551 6.90913 13.7319 6.85024 13.7785 6.76953C13.8251 6.68882 13.8378 6.5929 13.8137 6.50286C13.7896 6.41282 13.7307 6.33605 13.65 6.28943L13.2028 6.03125L13.65 5.77307C13.7307 5.72645 13.7896 5.64968 13.8137 5.55964C13.8378 5.46961 13.8251 5.37368 13.7785 5.29297C13.7319 5.21226 13.6551 5.15337 13.5651 5.12927C13.4751 5.10516 13.3791 5.11781 13.2984 5.16443L12.8515 5.42247V4.90625C12.8515 4.81301 12.8145 4.72359 12.7486 4.65766C12.6826 4.59173 12.5932 4.55469 12.5 4.55469C12.4067 4.55469 12.3173 4.59173 12.2514 4.65766C12.1855 4.72359 12.1484 4.81301 12.1484 4.90625V5.42247L11.7015 5.16443C11.6616 5.14134 11.6175 5.12636 11.5717 5.12032C11.5259 5.11429 11.4795 5.11733 11.4349 5.12927C11.3903 5.1412 11.3485 5.1618 11.3119 5.18989C11.2753 5.21798 11.2445 5.253 11.2214 5.29297C11.1984 5.33293 11.1834 5.37705 11.1773 5.42281C11.1713 5.46856 11.1743 5.51506 11.1863 5.55964C11.1982 5.60422 11.2188 5.64602 11.2469 5.68264C11.275 5.71926 11.31 5.74999 11.35 5.77307L11.7971 6.03125L11.35 6.28943C11.31 6.31249 11.275 6.34322 11.2469 6.37983C11.2188 6.41645 11.1981 6.45825 11.1862 6.50284C11.1743 6.54743 11.1712 6.59393 11.1773 6.63969C11.1833 6.68545 11.1983 6.72957 11.2214 6.76953Z" fill="black" fill-opacity="0.8"/>
<path d="M7.84645 5.29297C7.82334 5.33293 7.80833 5.37705 7.80228 5.42281C7.79624 5.46857 7.79927 5.51507 7.8112 5.55966C7.82314 5.60425 7.84375 5.64605 7.87185 5.68267C7.89995 5.71928 7.935 5.75001 7.97498 5.77307L8.42213 6.03125L7.97498 6.28943C7.93502 6.31251 7.89999 6.34324 7.8719 6.37986C7.84381 6.41648 7.82321 6.45828 7.81128 6.50286C7.79934 6.54744 7.7963 6.59394 7.80234 6.63969C7.80837 6.68545 7.82336 6.72957 7.84644 6.76953C7.86952 6.8095 7.90025 6.84452 7.93687 6.87261C7.97349 6.9007 8.01529 6.9213 8.05987 6.93323C8.10445 6.94517 8.15095 6.94821 8.1967 6.94218C8.24246 6.93614 8.28658 6.92116 8.32654 6.89807L8.77342 6.64003V7.15625C8.77342 7.24949 8.81046 7.33891 8.87639 7.40484C8.94232 7.47077 9.03174 7.50781 9.12498 7.50781C9.21822 7.50781 9.30764 7.47077 9.37357 7.40484C9.4395 7.33891 9.47654 7.24949 9.47654 7.15625V6.64003L9.92342 6.89807C9.96338 6.92116 10.0075 6.93614 10.0533 6.94218C10.099 6.94821 10.1455 6.94517 10.1901 6.93323C10.2347 6.9213 10.2765 6.9007 10.3131 6.87261C10.3497 6.84452 10.3804 6.8095 10.4035 6.76953C10.4266 6.72957 10.4416 6.68545 10.4476 6.63969C10.4537 6.59394 10.4506 6.54744 10.4387 6.50286C10.4267 6.45828 10.4061 6.41648 10.3781 6.37986C10.35 6.34324 10.3149 6.31251 10.275 6.28943L9.82783 6.03125L10.275 5.77307C10.3557 5.72645 10.4146 5.64968 10.4387 5.55964C10.4628 5.46961 10.4501 5.37368 10.4035 5.29297C10.3569 5.21226 10.2801 5.15337 10.1901 5.12927C10.1001 5.10516 10.0041 5.11781 9.92342 5.16443L9.47654 5.42247V4.90625C9.47654 4.81301 9.4395 4.72359 9.37357 4.65766C9.30764 4.59173 9.21822 4.55469 9.12498 4.55469C9.03174 4.55469 8.94232 4.59173 8.87639 4.65766C8.81046 4.72359 8.77342 4.81301 8.77342 4.90625V5.42247L8.32654 5.16443C8.2866 5.14125 8.24248 5.12619 8.1967 5.1201C8.15093 5.11402 8.1044 5.11704 8.0598 5.12898C8.01519 5.14092 7.97338 5.16156 7.93677 5.1897C7.90016 5.21784 7.86946 5.25293 7.84645 5.29297Z" fill="black" fill-opacity="0.8"/>
<path d="M7.02852 5.29297C7.00551 5.25293 6.97482 5.21783 6.93821 5.18968C6.90159 5.16153 6.85978 5.14089 6.81517 5.12895C6.77056 5.11701 6.72403 5.11399 6.67825 5.12008C6.63248 5.12617 6.58835 5.14124 6.54841 5.16443L6.10154 5.42247V4.90625C6.10154 4.81301 6.0645 4.72359 5.99857 4.65766C5.93264 4.59173 5.84322 4.55469 5.74998 4.55469C5.65674 4.55469 5.56732 4.59173 5.50138 4.65766C5.43545 4.72359 5.39841 4.81301 5.39841 4.90625V5.42247L4.95154 5.16443C4.87083 5.11781 4.7749 5.10516 4.68487 5.12927C4.59483 5.15337 4.51806 5.21226 4.47144 5.29297C4.42482 5.37368 4.41217 5.46961 4.43627 5.55964C4.46038 5.64968 4.51927 5.72645 4.59998 5.77307L5.04713 6.03125L4.59998 6.28943C4.56002 6.31251 4.52499 6.34324 4.4969 6.37986C4.46882 6.41648 4.44822 6.45828 4.43628 6.50286C4.42434 6.54744 4.42131 6.59394 4.42734 6.63969C4.43337 6.68545 4.44836 6.72957 4.47144 6.76953C4.49453 6.8095 4.52526 6.84452 4.56188 6.87261C4.5985 6.9007 4.64029 6.9213 4.68487 6.93323C4.72945 6.94517 4.77595 6.94821 4.82171 6.94218C4.86746 6.93614 4.91158 6.92116 4.95155 6.89807L5.39842 6.64003V7.15625C5.39842 7.24949 5.43546 7.33891 5.50139 7.40484C5.56732 7.47077 5.65674 7.50781 5.74998 7.50781C5.84322 7.50781 5.93265 7.47077 5.99858 7.40484C6.06451 7.33891 6.10155 7.24949 6.10155 7.15625V6.64003L6.54842 6.89807C6.62913 6.94469 6.72506 6.95734 6.81509 6.93323C6.90513 6.90913 6.9819 6.85024 7.02852 6.76953C7.07514 6.68882 7.08779 6.5929 7.06369 6.50286C7.03958 6.41282 6.98069 6.33605 6.89998 6.28943L6.45283 6.03125L6.89998 5.77307C6.93997 5.75001 6.97501 5.71928 7.00311 5.68267C7.03121 5.64605 7.05182 5.60425 7.06376 5.55966C7.0757 5.51507 7.07873 5.46857 7.07268 5.42281C7.06663 5.37705 7.05163 5.33293 7.02852 5.29297Z" fill="black" fill-opacity="0.8"/>
<path d="M5.32812 13.5547H3.92188C3.82863 13.5547 3.73921 13.5917 3.67328 13.6577C3.60735 13.7236 3.57031 13.813 3.57031 13.9062C3.57031 13.9995 3.60735 14.0889 3.67328 14.1548C3.73921 14.2208 3.82863 14.2578 3.92188 14.2578H5.32812C5.42137 14.2578 5.51079 14.2208 5.57672 14.1548C5.64265 14.0889 5.67969 13.9995 5.67969 13.9062C5.67969 13.813 5.64265 13.7236 5.57672 13.6577C5.51079 13.5917 5.42137 13.5547 5.32812 13.5547Z" fill="black" fill-opacity="0.8"/>
<path d="M3.92188 2.44531H5.32812C5.42137 2.44531 5.51079 2.40827 5.57672 2.34234C5.64265 2.27641 5.67969 2.18699 5.67969 2.09375C5.67969 2.00051 5.64265 1.91109 5.57672 1.84516C5.51079 1.77923 5.42137 1.74219 5.32812 1.74219H3.92188C3.82863 1.74219 3.73921 1.77923 3.67328 1.84516C3.60735 1.91109 3.57031 2.00051 3.57031 2.09375C3.57031 2.18699 3.60735 2.27641 3.67328 2.34234C3.73921 2.40827 3.82863 2.44531 3.92188 2.44531Z" fill="black" fill-opacity="0.8"/>
</g>
<defs>
<clipPath id="clip0_130_126">
<rect width="16" height="16" fill="white"/>
</clipPath>
</defs>
</svg>
